<mxfile host="app.diagrams.net" modified="2023-12-03T16:15:53.605Z" agent="Mozilla/5.0 (Windows NT 10.0; Win64; x64) AppleWebKit/537.36 (KHTML, like Gecko) Chrome/119.0.0.0 Safari/537.36" etag="O5chLItkx7vZA8hxlKZn" version="22.1.5" type="device" pages="2">
  <diagram name="Page-1" id="tajsgTH4dyHng_gMF2nl">
    <mxGraphModel dx="1034" dy="694" grid="1" gridSize="10" guides="1" tooltips="1" connect="1" arrows="1" fold="1" page="1" pageScale="1" pageWidth="3300" pageHeight="4681" math="0" shadow="0">
      <root>
        <mxCell id="0" />
        <mxCell id="1" parent="0" />
        <mxCell id="2riaoFkCgRDuT4ozKjDX-1" value="Utilizador" style="rounded=0;whiteSpace=wrap;html=1;fillColor=#FAE5C7;strokeColor=#0F8B8D;labelBackgroundColor=none;fontColor=#143642;" parent="1" vertex="1">
          <mxGeometry x="640" y="1280" width="120" height="80" as="geometry" />
        </mxCell>
        <mxCell id="2riaoFkCgRDuT4ozKjDX-2" value="" style="endArrow=none;html=1;rounded=0;entryX=0;entryY=0.5;entryDx=0;entryDy=0;exitX=1;exitY=0.5;exitDx=0;exitDy=0;labelBackgroundColor=none;strokeColor=#A8201A;fontColor=default;" parent="1" source="2riaoFkCgRDuT4ozKjDX-9" target="2riaoFkCgRDuT4ozKjDX-1" edge="1">
          <mxGeometry width="50" height="50" relative="1" as="geometry">
            <mxPoint x="560" y="1360" as="sourcePoint" />
            <mxPoint x="620" y="1340" as="targetPoint" />
          </mxGeometry>
        </mxCell>
        <mxCell id="2riaoFkCgRDuT4ozKjDX-3" value="Participar" style="rhombus;whiteSpace=wrap;html=1;labelBackgroundColor=none;fillColor=#FAE5C7;strokeColor=#0F8B8D;fontColor=#143642;" parent="1" vertex="1">
          <mxGeometry x="840" y="1280" width="80" height="80" as="geometry" />
        </mxCell>
        <mxCell id="2riaoFkCgRDuT4ozKjDX-4" value="n" style="text;html=1;strokeColor=none;fillColor=none;align=center;verticalAlign=middle;whiteSpace=wrap;rounded=0;labelBackgroundColor=none;fontColor=#143642;" parent="1" vertex="1">
          <mxGeometry x="1110" y="1290" width="60" height="30" as="geometry" />
        </mxCell>
        <mxCell id="2riaoFkCgRDuT4ozKjDX-5" value="Desafio" style="rounded=0;whiteSpace=wrap;html=1;labelBackgroundColor=none;fillColor=#FAE5C7;strokeColor=#0F8B8D;fontColor=#143642;" parent="1" vertex="1">
          <mxGeometry x="1000" y="1280" width="120" height="80" as="geometry" />
        </mxCell>
        <mxCell id="2riaoFkCgRDuT4ozKjDX-6" value="Região" style="rounded=0;whiteSpace=wrap;html=1;labelBackgroundColor=none;fillColor=#FAE5C7;strokeColor=#0F8B8D;fontColor=#143642;" parent="1" vertex="1">
          <mxGeometry x="1360" y="1600" width="120" height="80" as="geometry" />
        </mxCell>
        <mxCell id="2riaoFkCgRDuT4ozKjDX-7" value="País" style="rounded=0;whiteSpace=wrap;html=1;labelBackgroundColor=none;fillColor=#FAE5C7;strokeColor=#0F8B8D;fontColor=#143642;" parent="1" vertex="1">
          <mxGeometry x="1360" y="1920" width="120" height="80" as="geometry" />
        </mxCell>
        <mxCell id="2riaoFkCgRDuT4ozKjDX-8" value="Localidade" style="rounded=0;whiteSpace=wrap;html=1;labelBackgroundColor=none;fillColor=#FAE5C7;strokeColor=#0F8B8D;fontColor=#143642;" parent="1" vertex="1">
          <mxGeometry x="1360" y="1280" width="120" height="80" as="geometry" />
        </mxCell>
        <mxCell id="2riaoFkCgRDuT4ozKjDX-9" value="id_user" style="ellipse;whiteSpace=wrap;html=1;labelBackgroundColor=none;fillColor=#FAE5C7;strokeColor=#0F8B8D;fontColor=#143642;" parent="1" vertex="1">
          <mxGeometry x="520" y="1280" width="80" height="80" as="geometry" />
        </mxCell>
        <mxCell id="2riaoFkCgRDuT4ozKjDX-10" value="" style="endArrow=none;html=1;rounded=0;entryX=0;entryY=0.5;entryDx=0;entryDy=0;exitX=1;exitY=0.5;exitDx=0;exitDy=0;labelBackgroundColor=none;strokeColor=#A8201A;fontColor=default;" parent="1" source="2riaoFkCgRDuT4ozKjDX-11" target="2riaoFkCgRDuT4ozKjDX-9" edge="1">
          <mxGeometry width="50" height="50" relative="1" as="geometry">
            <mxPoint x="440" y="1360" as="sourcePoint" />
            <mxPoint x="520" y="1320" as="targetPoint" />
          </mxGeometry>
        </mxCell>
        <mxCell id="2riaoFkCgRDuT4ozKjDX-11" value="nome" style="ellipse;whiteSpace=wrap;html=1;labelBackgroundColor=none;fillColor=#FAE5C7;strokeColor=#0F8B8D;fontColor=#143642;" parent="1" vertex="1">
          <mxGeometry x="400" y="1280" width="80" height="80" as="geometry" />
        </mxCell>
        <mxCell id="2riaoFkCgRDuT4ozKjDX-12" value="" style="endArrow=none;html=1;rounded=0;entryX=0;entryY=0.5;entryDx=0;entryDy=0;exitX=1;exitY=0.5;exitDx=0;exitDy=0;labelBackgroundColor=none;strokeColor=#A8201A;fontColor=default;" parent="1" source="2riaoFkCgRDuT4ozKjDX-13" target="2riaoFkCgRDuT4ozKjDX-11" edge="1">
          <mxGeometry width="50" height="50" relative="1" as="geometry">
            <mxPoint x="320" y="1360" as="sourcePoint" />
            <mxPoint x="400" y="1320" as="targetPoint" />
          </mxGeometry>
        </mxCell>
        <mxCell id="2riaoFkCgRDuT4ozKjDX-13" value="idade" style="ellipse;whiteSpace=wrap;html=1;labelBackgroundColor=none;fillColor=#FAE5C7;strokeColor=#0F8B8D;fontColor=#143642;" parent="1" vertex="1">
          <mxGeometry x="280" y="1280" width="80" height="80" as="geometry" />
        </mxCell>
        <mxCell id="2riaoFkCgRDuT4ozKjDX-14" value="" style="endArrow=none;html=1;rounded=0;exitX=1;exitY=0.5;exitDx=0;exitDy=0;entryX=0;entryY=0.5;entryDx=0;entryDy=0;labelBackgroundColor=none;strokeColor=#A8201A;fontColor=default;" parent="1" source="2riaoFkCgRDuT4ozKjDX-15" target="2riaoFkCgRDuT4ozKjDX-13" edge="1">
          <mxGeometry width="50" height="50" relative="1" as="geometry">
            <mxPoint x="200" y="1360" as="sourcePoint" />
            <mxPoint x="270" y="1350" as="targetPoint" />
          </mxGeometry>
        </mxCell>
        <mxCell id="2riaoFkCgRDuT4ozKjDX-15" value="email" style="ellipse;whiteSpace=wrap;html=1;labelBackgroundColor=none;fillColor=#FAE5C7;strokeColor=#0F8B8D;fontColor=#143642;" parent="1" vertex="1">
          <mxGeometry x="160" y="1280" width="80" height="80" as="geometry" />
        </mxCell>
        <mxCell id="2riaoFkCgRDuT4ozKjDX-16" value="" style="endArrow=none;html=1;rounded=0;exitX=1;exitY=0.5;exitDx=0;exitDy=0;entryX=0;entryY=0.5;entryDx=0;entryDy=0;labelBackgroundColor=none;strokeColor=#A8201A;fontColor=default;" parent="1" source="2riaoFkCgRDuT4ozKjDX-17" target="2riaoFkCgRDuT4ozKjDX-15" edge="1">
          <mxGeometry width="50" height="50" relative="1" as="geometry">
            <mxPoint x="80" y="1360" as="sourcePoint" />
            <mxPoint x="150" y="1340" as="targetPoint" />
          </mxGeometry>
        </mxCell>
        <mxCell id="2riaoFkCgRDuT4ozKjDX-17" value="telefone" style="ellipse;whiteSpace=wrap;html=1;labelBackgroundColor=none;fillColor=#FAE5C7;strokeColor=#0F8B8D;fontColor=#143642;" parent="1" vertex="1">
          <mxGeometry x="40" y="1280" width="80" height="80" as="geometry" />
        </mxCell>
        <mxCell id="2riaoFkCgRDuT4ozKjDX-18" value="" style="endArrow=none;html=1;rounded=0;entryX=0;entryY=0.5;entryDx=0;entryDy=0;exitX=1;exitY=0.5;exitDx=0;exitDy=0;labelBackgroundColor=none;strokeColor=#A8201A;fontColor=default;" parent="1" source="2riaoFkCgRDuT4ozKjDX-5" target="2riaoFkCgRDuT4ozKjDX-19" edge="1">
          <mxGeometry width="50" height="50" relative="1" as="geometry">
            <mxPoint x="1170" y="1320" as="sourcePoint" />
            <mxPoint x="1070" y="1420" as="targetPoint" />
          </mxGeometry>
        </mxCell>
        <mxCell id="2riaoFkCgRDuT4ozKjDX-19" value="Situar-se" style="rhombus;whiteSpace=wrap;html=1;labelBackgroundColor=none;fillColor=#FAE5C7;strokeColor=#0F8B8D;fontColor=#143642;" parent="1" vertex="1">
          <mxGeometry x="1200" y="1280" width="80" height="80" as="geometry" />
        </mxCell>
        <mxCell id="2riaoFkCgRDuT4ozKjDX-20" value="" style="endArrow=none;html=1;rounded=0;entryX=0;entryY=0.5;entryDx=0;entryDy=0;exitX=1;exitY=0.5;exitDx=0;exitDy=0;labelBackgroundColor=none;strokeColor=#A8201A;fontColor=default;" parent="1" source="2riaoFkCgRDuT4ozKjDX-19" target="2riaoFkCgRDuT4ozKjDX-8" edge="1">
          <mxGeometry width="50" height="50" relative="1" as="geometry">
            <mxPoint x="1150" y="1330" as="sourcePoint" />
            <mxPoint x="1230" y="1330" as="targetPoint" />
          </mxGeometry>
        </mxCell>
        <mxCell id="2riaoFkCgRDuT4ozKjDX-22" value="Situar-se/&lt;br&gt;Ter" style="rhombus;whiteSpace=wrap;html=1;labelBackgroundColor=none;fillColor=#FAE5C7;strokeColor=#0F8B8D;fontColor=#143642;" parent="1" vertex="1">
          <mxGeometry x="1380" y="1440" width="80" height="80" as="geometry" />
        </mxCell>
        <mxCell id="2riaoFkCgRDuT4ozKjDX-26" value="" style="endArrow=none;html=1;rounded=0;entryX=0.5;entryY=0;entryDx=0;entryDy=0;exitX=0.5;exitY=1;exitDx=0;exitDy=0;labelBackgroundColor=none;strokeColor=#A8201A;fontColor=default;" parent="1" source="2riaoFkCgRDuT4ozKjDX-8" target="2riaoFkCgRDuT4ozKjDX-22" edge="1">
          <mxGeometry width="50" height="50" relative="1" as="geometry">
            <mxPoint x="1210" y="1480" as="sourcePoint" />
            <mxPoint x="1310" y="1560" as="targetPoint" />
          </mxGeometry>
        </mxCell>
        <mxCell id="2riaoFkCgRDuT4ozKjDX-27" value="" style="endArrow=none;html=1;rounded=0;entryX=0.5;entryY=0;entryDx=0;entryDy=0;exitX=0.5;exitY=1;exitDx=0;exitDy=0;labelBackgroundColor=none;strokeColor=#A8201A;fontColor=default;" parent="1" source="2riaoFkCgRDuT4ozKjDX-22" target="2riaoFkCgRDuT4ozKjDX-6" edge="1">
          <mxGeometry width="50" height="50" relative="1" as="geometry">
            <mxPoint x="1200" y="1680" as="sourcePoint" />
            <mxPoint x="1300" y="1700" as="targetPoint" />
          </mxGeometry>
        </mxCell>
        <mxCell id="2riaoFkCgRDuT4ozKjDX-29" value="1" style="text;html=1;strokeColor=none;fillColor=none;align=center;verticalAlign=middle;whiteSpace=wrap;rounded=0;labelBackgroundColor=none;fontColor=#143642;" parent="1" vertex="1">
          <mxGeometry x="1320" y="1290" width="60" height="30" as="geometry" />
        </mxCell>
        <mxCell id="2riaoFkCgRDuT4ozKjDX-31" value="n" style="text;html=1;strokeColor=none;fillColor=none;align=center;verticalAlign=middle;whiteSpace=wrap;rounded=0;labelBackgroundColor=none;fontColor=#143642;" parent="1" vertex="1">
          <mxGeometry x="1400" y="1360" width="60" height="30" as="geometry" />
        </mxCell>
        <mxCell id="2riaoFkCgRDuT4ozKjDX-35" value="1" style="text;html=1;strokeColor=none;fillColor=none;align=center;verticalAlign=middle;whiteSpace=wrap;rounded=0;labelBackgroundColor=none;fontColor=#143642;" parent="1" vertex="1">
          <mxGeometry x="1400" y="1570" width="60" height="30" as="geometry" />
        </mxCell>
        <mxCell id="2riaoFkCgRDuT4ozKjDX-36" value="" style="endArrow=none;html=1;rounded=0;entryX=0;entryY=0.5;entryDx=0;entryDy=0;exitX=1;exitY=0.5;exitDx=0;exitDy=0;labelBackgroundColor=none;strokeColor=#A8201A;fontColor=default;" parent="1" source="2riaoFkCgRDuT4ozKjDX-1" target="2riaoFkCgRDuT4ozKjDX-3" edge="1">
          <mxGeometry width="50" height="50" relative="1" as="geometry">
            <mxPoint x="610" y="1330" as="sourcePoint" />
            <mxPoint x="650" y="1330" as="targetPoint" />
          </mxGeometry>
        </mxCell>
        <mxCell id="2riaoFkCgRDuT4ozKjDX-37" value="" style="endArrow=none;html=1;rounded=0;entryX=0;entryY=0.5;entryDx=0;entryDy=0;exitX=1;exitY=0.5;exitDx=0;exitDy=0;labelBackgroundColor=none;strokeColor=#A8201A;fontColor=default;" parent="1" source="2riaoFkCgRDuT4ozKjDX-3" target="2riaoFkCgRDuT4ozKjDX-5" edge="1">
          <mxGeometry width="50" height="50" relative="1" as="geometry">
            <mxPoint x="770" y="1330" as="sourcePoint" />
            <mxPoint x="850" y="1330" as="targetPoint" />
          </mxGeometry>
        </mxCell>
        <mxCell id="2riaoFkCgRDuT4ozKjDX-38" value="n" style="text;html=1;strokeColor=none;fillColor=none;align=center;verticalAlign=middle;whiteSpace=wrap;rounded=0;labelBackgroundColor=none;fontColor=#143642;" parent="1" vertex="1">
          <mxGeometry x="740" y="1320" width="60" height="30" as="geometry" />
        </mxCell>
        <mxCell id="2riaoFkCgRDuT4ozKjDX-39" value="n" style="text;html=1;strokeColor=none;fillColor=none;align=center;verticalAlign=middle;whiteSpace=wrap;rounded=0;labelBackgroundColor=none;fontColor=#143642;" parent="1" vertex="1">
          <mxGeometry x="960" y="1320" width="60" height="30" as="geometry" />
        </mxCell>
        <mxCell id="2riaoFkCgRDuT4ozKjDX-41" value="Criar" style="rhombus;whiteSpace=wrap;html=1;labelBackgroundColor=none;fillColor=#FAE5C7;strokeColor=#0F8B8D;fontColor=#143642;" parent="1" vertex="1">
          <mxGeometry x="840" y="1160" width="80" height="80" as="geometry" />
        </mxCell>
        <mxCell id="2riaoFkCgRDuT4ozKjDX-42" value="" style="endArrow=none;html=1;rounded=0;entryX=0;entryY=0.5;entryDx=0;entryDy=0;exitX=1;exitY=0.5;exitDx=0;exitDy=0;labelBackgroundColor=none;strokeColor=#A8201A;fontColor=default;" parent="1" source="2riaoFkCgRDuT4ozKjDX-1" target="2riaoFkCgRDuT4ozKjDX-41" edge="1">
          <mxGeometry width="50" height="50" relative="1" as="geometry">
            <mxPoint x="770" y="1330" as="sourcePoint" />
            <mxPoint x="850" y="1330" as="targetPoint" />
          </mxGeometry>
        </mxCell>
        <mxCell id="2riaoFkCgRDuT4ozKjDX-43" value="" style="endArrow=none;html=1;rounded=0;entryX=1;entryY=0.5;entryDx=0;entryDy=0;exitX=0;exitY=0.5;exitDx=0;exitDy=0;labelBackgroundColor=none;strokeColor=#A8201A;fontColor=default;" parent="1" source="2riaoFkCgRDuT4ozKjDX-5" target="2riaoFkCgRDuT4ozKjDX-41" edge="1">
          <mxGeometry width="50" height="50" relative="1" as="geometry">
            <mxPoint x="770" y="1330" as="sourcePoint" />
            <mxPoint x="850" y="1210" as="targetPoint" />
          </mxGeometry>
        </mxCell>
        <mxCell id="2riaoFkCgRDuT4ozKjDX-44" value="1" style="text;html=1;strokeColor=none;fillColor=none;align=center;verticalAlign=middle;whiteSpace=wrap;rounded=0;labelBackgroundColor=none;fontColor=#143642;" parent="1" vertex="1">
          <mxGeometry x="750" y="1250" width="60" height="30" as="geometry" />
        </mxCell>
        <mxCell id="2riaoFkCgRDuT4ozKjDX-45" value="n" style="text;html=1;strokeColor=none;fillColor=none;align=center;verticalAlign=middle;whiteSpace=wrap;rounded=0;labelBackgroundColor=none;fontColor=#143642;" parent="1" vertex="1">
          <mxGeometry x="950" y="1250" width="60" height="30" as="geometry" />
        </mxCell>
        <mxCell id="2riaoFkCgRDuT4ozKjDX-46" value="" style="endArrow=none;html=1;rounded=0;exitX=0.5;exitY=1;exitDx=0;exitDy=0;entryX=0.5;entryY=0;entryDx=0;entryDy=0;labelBackgroundColor=none;strokeColor=#A8201A;fontColor=default;" parent="1" source="2riaoFkCgRDuT4ozKjDX-5" target="2riaoFkCgRDuT4ozKjDX-60" edge="1">
          <mxGeometry width="50" height="50" relative="1" as="geometry">
            <mxPoint x="1020" y="1424.5" as="sourcePoint" />
            <mxPoint x="1060" y="1430" as="targetPoint" />
          </mxGeometry>
        </mxCell>
        <mxCell id="2riaoFkCgRDuT4ozKjDX-48" value="" style="endArrow=none;html=1;rounded=0;exitX=1;exitY=0.5;exitDx=0;exitDy=0;entryX=0;entryY=0.5;entryDx=0;entryDy=0;labelBackgroundColor=none;strokeColor=#A8201A;fontColor=default;" parent="1" source="2riaoFkCgRDuT4ozKjDX-8" target="2riaoFkCgRDuT4ozKjDX-49" edge="1">
          <mxGeometry width="50" height="50" relative="1" as="geometry">
            <mxPoint x="1530" y="1340" as="sourcePoint" />
            <mxPoint x="1530" y="1320" as="targetPoint" />
          </mxGeometry>
        </mxCell>
        <mxCell id="2riaoFkCgRDuT4ozKjDX-49" value="id_localidade" style="ellipse;whiteSpace=wrap;html=1;labelBackgroundColor=none;fillColor=#FAE5C7;strokeColor=#0F8B8D;fontColor=#143642;" parent="1" vertex="1">
          <mxGeometry x="1520" y="1280" width="80" height="80" as="geometry" />
        </mxCell>
        <mxCell id="2riaoFkCgRDuT4ozKjDX-50" value="" style="endArrow=none;html=1;rounded=0;exitX=1;exitY=0.5;exitDx=0;exitDy=0;entryX=0;entryY=0.5;entryDx=0;entryDy=0;labelBackgroundColor=none;strokeColor=#A8201A;fontColor=default;" parent="1" source="2riaoFkCgRDuT4ozKjDX-49" target="2riaoFkCgRDuT4ozKjDX-51" edge="1">
          <mxGeometry width="50" height="50" relative="1" as="geometry">
            <mxPoint x="1600" y="1320" as="sourcePoint" />
            <mxPoint x="1650" y="1320" as="targetPoint" />
          </mxGeometry>
        </mxCell>
        <mxCell id="2riaoFkCgRDuT4ozKjDX-51" value="nome" style="ellipse;whiteSpace=wrap;html=1;labelBackgroundColor=none;fillColor=#FAE5C7;strokeColor=#0F8B8D;fontColor=#143642;" parent="1" vertex="1">
          <mxGeometry x="1640" y="1280" width="80" height="80" as="geometry" />
        </mxCell>
        <mxCell id="2riaoFkCgRDuT4ozKjDX-52" value="" style="endArrow=none;html=1;rounded=0;exitX=1;exitY=0.5;exitDx=0;exitDy=0;entryX=0;entryY=0.5;entryDx=0;entryDy=0;labelBackgroundColor=none;strokeColor=#A8201A;fontColor=default;" parent="1" source="2riaoFkCgRDuT4ozKjDX-6" target="2riaoFkCgRDuT4ozKjDX-53" edge="1">
          <mxGeometry width="50" height="50" relative="1" as="geometry">
            <mxPoint x="1480" y="1640" as="sourcePoint" />
            <mxPoint x="1530" y="1640" as="targetPoint" />
          </mxGeometry>
        </mxCell>
        <mxCell id="2riaoFkCgRDuT4ozKjDX-53" value="id_regiao" style="ellipse;whiteSpace=wrap;html=1;labelBackgroundColor=none;fillColor=#FAE5C7;strokeColor=#0F8B8D;fontColor=#143642;" parent="1" vertex="1">
          <mxGeometry x="1520" y="1600" width="80" height="80" as="geometry" />
        </mxCell>
        <mxCell id="2riaoFkCgRDuT4ozKjDX-54" value="" style="endArrow=none;html=1;rounded=0;exitX=1;exitY=0.5;exitDx=0;exitDy=0;entryX=0;entryY=0.5;entryDx=0;entryDy=0;labelBackgroundColor=none;strokeColor=#A8201A;fontColor=default;" parent="1" source="2riaoFkCgRDuT4ozKjDX-53" target="2riaoFkCgRDuT4ozKjDX-55" edge="1">
          <mxGeometry width="50" height="50" relative="1" as="geometry">
            <mxPoint x="1600" y="1640" as="sourcePoint" />
            <mxPoint x="1650" y="1640" as="targetPoint" />
          </mxGeometry>
        </mxCell>
        <mxCell id="2riaoFkCgRDuT4ozKjDX-55" value="nome" style="ellipse;whiteSpace=wrap;html=1;labelBackgroundColor=none;fillColor=#FAE5C7;strokeColor=#0F8B8D;fontColor=#143642;" parent="1" vertex="1">
          <mxGeometry x="1640" y="1600" width="80" height="80" as="geometry" />
        </mxCell>
        <mxCell id="2riaoFkCgRDuT4ozKjDX-56" value="" style="endArrow=none;html=1;rounded=0;exitX=1;exitY=0.5;exitDx=0;exitDy=0;entryX=0;entryY=0.5;entryDx=0;entryDy=0;labelBackgroundColor=none;strokeColor=#A8201A;fontColor=default;" parent="1" target="2riaoFkCgRDuT4ozKjDX-57" edge="1">
          <mxGeometry width="50" height="50" relative="1" as="geometry">
            <mxPoint x="1480" y="1960" as="sourcePoint" />
            <mxPoint x="1530" y="1960" as="targetPoint" />
          </mxGeometry>
        </mxCell>
        <mxCell id="2riaoFkCgRDuT4ozKjDX-57" value="id_pais" style="ellipse;whiteSpace=wrap;html=1;labelBackgroundColor=none;fillColor=#FAE5C7;strokeColor=#0F8B8D;fontColor=#143642;" parent="1" vertex="1">
          <mxGeometry x="1520" y="1920" width="80" height="80" as="geometry" />
        </mxCell>
        <mxCell id="2riaoFkCgRDuT4ozKjDX-58" value="" style="endArrow=none;html=1;rounded=0;exitX=1;exitY=0.5;exitDx=0;exitDy=0;entryX=0;entryY=0.5;entryDx=0;entryDy=0;labelBackgroundColor=none;strokeColor=#A8201A;fontColor=default;" parent="1" source="2riaoFkCgRDuT4ozKjDX-57" target="2riaoFkCgRDuT4ozKjDX-59" edge="1">
          <mxGeometry width="50" height="50" relative="1" as="geometry">
            <mxPoint x="1600" y="1960" as="sourcePoint" />
            <mxPoint x="1650" y="1960" as="targetPoint" />
          </mxGeometry>
        </mxCell>
        <mxCell id="2riaoFkCgRDuT4ozKjDX-59" value="nome" style="ellipse;whiteSpace=wrap;html=1;labelBackgroundColor=none;fillColor=#FAE5C7;strokeColor=#0F8B8D;fontColor=#143642;" parent="1" vertex="1">
          <mxGeometry x="1640" y="1920" width="80" height="80" as="geometry" />
        </mxCell>
        <mxCell id="2riaoFkCgRDuT4ozKjDX-60" value="id_desafio" style="ellipse;whiteSpace=wrap;html=1;labelBackgroundColor=none;fillColor=#FAE5C7;strokeColor=#0F8B8D;fontColor=#143642;" parent="1" vertex="1">
          <mxGeometry x="1020" y="1400" width="80" height="80" as="geometry" />
        </mxCell>
        <mxCell id="2riaoFkCgRDuT4ozKjDX-61" value="" style="endArrow=none;html=1;rounded=0;exitX=0.5;exitY=1;exitDx=0;exitDy=0;entryX=0.5;entryY=0;entryDx=0;entryDy=0;labelBackgroundColor=none;strokeColor=#A8201A;fontColor=default;" parent="1" source="2riaoFkCgRDuT4ozKjDX-60" target="2riaoFkCgRDuT4ozKjDX-62" edge="1">
          <mxGeometry width="50" height="50" relative="1" as="geometry">
            <mxPoint x="1060" y="1480" as="sourcePoint" />
            <mxPoint x="1060" y="1550" as="targetPoint" />
          </mxGeometry>
        </mxCell>
        <mxCell id="2riaoFkCgRDuT4ozKjDX-62" value="descriçao" style="ellipse;whiteSpace=wrap;html=1;labelBackgroundColor=none;fillColor=#FAE5C7;strokeColor=#0F8B8D;fontColor=#143642;" parent="1" vertex="1">
          <mxGeometry x="1020" y="1520" width="80" height="80" as="geometry" />
        </mxCell>
        <mxCell id="2riaoFkCgRDuT4ozKjDX-63" value="" style="endArrow=none;html=1;rounded=0;exitX=0.5;exitY=1;exitDx=0;exitDy=0;entryX=0.5;entryY=0;entryDx=0;entryDy=0;labelBackgroundColor=none;strokeColor=#A8201A;fontColor=default;" parent="1" source="2riaoFkCgRDuT4ozKjDX-3" target="2riaoFkCgRDuT4ozKjDX-64" edge="1">
          <mxGeometry width="50" height="50" relative="1" as="geometry">
            <mxPoint x="880" y="1360" as="sourcePoint" />
            <mxPoint x="880" y="1430" as="targetPoint" />
          </mxGeometry>
        </mxCell>
        <mxCell id="2riaoFkCgRDuT4ozKjDX-64" value="sucesso" style="ellipse;whiteSpace=wrap;html=1;labelBackgroundColor=none;fillColor=#FAE5C7;strokeColor=#0F8B8D;fontColor=#143642;" parent="1" vertex="1">
          <mxGeometry x="840" y="1400" width="80" height="80" as="geometry" />
        </mxCell>
        <mxCell id="2riaoFkCgRDuT4ozKjDX-65" value="" style="endArrow=none;html=1;rounded=0;entryX=0.5;entryY=0;entryDx=0;entryDy=0;exitX=0.5;exitY=1;exitDx=0;exitDy=0;labelBackgroundColor=none;strokeColor=#A8201A;fontColor=default;" parent="1" source="2riaoFkCgRDuT4ozKjDX-76" target="2riaoFkCgRDuT4ozKjDX-66" edge="1">
          <mxGeometry width="50" height="50" relative="1" as="geometry">
            <mxPoint x="830" y="1780" as="sourcePoint" />
            <mxPoint x="880" y="1830" as="targetPoint" />
          </mxGeometry>
        </mxCell>
        <mxCell id="2riaoFkCgRDuT4ozKjDX-66" value="dataInicio" style="ellipse;whiteSpace=wrap;html=1;labelBackgroundColor=none;fillColor=#FAE5C7;strokeColor=#0F8B8D;fontColor=#143642;" parent="1" vertex="1">
          <mxGeometry x="840" y="1640" width="80" height="80" as="geometry" />
        </mxCell>
        <mxCell id="2riaoFkCgRDuT4ozKjDX-67" value="" style="endArrow=none;html=1;rounded=0;exitX=0.5;exitY=1;exitDx=0;exitDy=0;entryX=0.5;entryY=0;entryDx=0;entryDy=0;labelBackgroundColor=none;strokeColor=#A8201A;fontColor=default;" parent="1" source="2riaoFkCgRDuT4ozKjDX-66" target="2riaoFkCgRDuT4ozKjDX-68" edge="1">
          <mxGeometry width="50" height="50" relative="1" as="geometry">
            <mxPoint x="880" y="1720" as="sourcePoint" />
            <mxPoint x="880" y="1790" as="targetPoint" />
          </mxGeometry>
        </mxCell>
        <mxCell id="2riaoFkCgRDuT4ozKjDX-68" value="horaInicio" style="ellipse;whiteSpace=wrap;html=1;labelBackgroundColor=none;fillColor=#FAE5C7;strokeColor=#0F8B8D;fontColor=#143642;" parent="1" vertex="1">
          <mxGeometry x="840" y="1760" width="80" height="80" as="geometry" />
        </mxCell>
        <mxCell id="2riaoFkCgRDuT4ozKjDX-69" value="" style="endArrow=none;html=1;rounded=0;exitX=0.5;exitY=1;exitDx=0;exitDy=0;entryX=0.5;entryY=0;entryDx=0;entryDy=0;labelBackgroundColor=none;strokeColor=#A8201A;fontColor=default;" parent="1" target="2riaoFkCgRDuT4ozKjDX-70" edge="1">
          <mxGeometry width="50" height="50" relative="1" as="geometry">
            <mxPoint x="880" y="1840" as="sourcePoint" />
            <mxPoint x="880" y="1910" as="targetPoint" />
          </mxGeometry>
        </mxCell>
        <mxCell id="2riaoFkCgRDuT4ozKjDX-70" value="dataFim" style="ellipse;whiteSpace=wrap;html=1;labelBackgroundColor=none;fillColor=#FAE5C7;strokeColor=#0F8B8D;fontColor=#143642;" parent="1" vertex="1">
          <mxGeometry x="840" y="1880" width="80" height="80" as="geometry" />
        </mxCell>
        <mxCell id="2riaoFkCgRDuT4ozKjDX-71" value="" style="endArrow=none;html=1;rounded=0;exitX=0.5;exitY=1;exitDx=0;exitDy=0;entryX=0.5;entryY=0;entryDx=0;entryDy=0;labelBackgroundColor=none;strokeColor=#A8201A;fontColor=default;" parent="1" source="2riaoFkCgRDuT4ozKjDX-70" target="2riaoFkCgRDuT4ozKjDX-72" edge="1">
          <mxGeometry width="50" height="50" relative="1" as="geometry">
            <mxPoint x="880" y="1960" as="sourcePoint" />
            <mxPoint x="880" y="2030" as="targetPoint" />
          </mxGeometry>
        </mxCell>
        <mxCell id="2riaoFkCgRDuT4ozKjDX-72" value="horaFim" style="ellipse;whiteSpace=wrap;html=1;labelBackgroundColor=none;fillColor=#FAE5C7;strokeColor=#0F8B8D;fontColor=#143642;" parent="1" vertex="1">
          <mxGeometry x="840" y="2000" width="80" height="80" as="geometry" />
        </mxCell>
        <mxCell id="2riaoFkCgRDuT4ozKjDX-75" value="" style="endArrow=none;html=1;rounded=0;exitX=0.5;exitY=1;exitDx=0;exitDy=0;entryX=0.5;entryY=0;entryDx=0;entryDy=0;labelBackgroundColor=none;strokeColor=#A8201A;fontColor=default;" parent="1" source="2riaoFkCgRDuT4ozKjDX-64" target="2riaoFkCgRDuT4ozKjDX-76" edge="1">
          <mxGeometry width="50" height="50" relative="1" as="geometry">
            <mxPoint x="880" y="1480" as="sourcePoint" />
            <mxPoint x="880" y="1550" as="targetPoint" />
          </mxGeometry>
        </mxCell>
        <mxCell id="2riaoFkCgRDuT4ozKjDX-76" value="validarSucesso" style="ellipse;whiteSpace=wrap;html=1;labelBackgroundColor=none;fillColor=#FAE5C7;strokeColor=#0F8B8D;fontColor=#143642;" parent="1" vertex="1">
          <mxGeometry x="835" y="1520" width="90" height="80" as="geometry" />
        </mxCell>
        <mxCell id="eWHumccXY5G5uVtTV75Z-3" value="Situar-se/&lt;br&gt;Ter" style="rhombus;whiteSpace=wrap;html=1;labelBackgroundColor=none;fillColor=#FAE5C7;strokeColor=#0F8B8D;fontColor=#143642;" parent="1" vertex="1">
          <mxGeometry x="1380" y="1760" width="80" height="80" as="geometry" />
        </mxCell>
        <mxCell id="eWHumccXY5G5uVtTV75Z-4" value="" style="endArrow=none;html=1;rounded=0;entryX=0.5;entryY=0;entryDx=0;entryDy=0;exitX=0.5;exitY=1;exitDx=0;exitDy=0;labelBackgroundColor=none;strokeColor=#A8201A;fontColor=default;" parent="1" source="2riaoFkCgRDuT4ozKjDX-6" target="eWHumccXY5G5uVtTV75Z-3" edge="1">
          <mxGeometry width="50" height="50" relative="1" as="geometry">
            <mxPoint x="1270" y="1670" as="sourcePoint" />
            <mxPoint x="1160" y="1870" as="targetPoint" />
          </mxGeometry>
        </mxCell>
        <mxCell id="eWHumccXY5G5uVtTV75Z-5" value="" style="endArrow=none;html=1;rounded=0;entryX=0.5;entryY=0;entryDx=0;entryDy=0;exitX=0.5;exitY=1;exitDx=0;exitDy=0;labelBackgroundColor=none;strokeColor=#A8201A;fontColor=default;" parent="1" source="eWHumccXY5G5uVtTV75Z-3" target="2riaoFkCgRDuT4ozKjDX-7" edge="1">
          <mxGeometry width="50" height="50" relative="1" as="geometry">
            <mxPoint x="1050" y="1990" as="sourcePoint" />
            <mxPoint x="1270" y="1910" as="targetPoint" />
          </mxGeometry>
        </mxCell>
        <mxCell id="eWHumccXY5G5uVtTV75Z-6" value="n" style="text;html=1;strokeColor=none;fillColor=none;align=center;verticalAlign=middle;whiteSpace=wrap;rounded=0;labelBackgroundColor=none;fontColor=#143642;" parent="1" vertex="1">
          <mxGeometry x="1370" y="1680" width="60" height="30" as="geometry" />
        </mxCell>
        <mxCell id="eWHumccXY5G5uVtTV75Z-7" value="1" style="text;html=1;strokeColor=none;fillColor=none;align=center;verticalAlign=middle;whiteSpace=wrap;rounded=0;labelBackgroundColor=none;fontColor=#143642;" parent="1" vertex="1">
          <mxGeometry x="1370" y="1890" width="60" height="30" as="geometry" />
        </mxCell>
        <mxCell id="WWU5L2h-9N9tsZXrCsHV-1" value="" style="endArrow=none;html=1;rounded=0;exitX=1;exitY=0.5;exitDx=0;exitDy=0;entryX=0;entryY=0.5;entryDx=0;entryDy=0;labelBackgroundColor=none;strokeColor=#A8201A;fontColor=default;" parent="1" source="2riaoFkCgRDuT4ozKjDX-51" target="WWU5L2h-9N9tsZXrCsHV-2" edge="1">
          <mxGeometry width="50" height="50" relative="1" as="geometry">
            <mxPoint x="1780" y="1320" as="sourcePoint" />
            <mxPoint x="1830" y="1320" as="targetPoint" />
          </mxGeometry>
        </mxCell>
        <mxCell id="WWU5L2h-9N9tsZXrCsHV-2" value="localizacaoGPS" style="ellipse;whiteSpace=wrap;html=1;labelBackgroundColor=none;fillColor=#FAE5C7;strokeColor=#0F8B8D;fontColor=#143642;" parent="1" vertex="1">
          <mxGeometry x="1760" y="1280" width="100" height="80" as="geometry" />
        </mxCell>
      </root>
    </mxGraphModel>
  </diagram>
  <diagram id="BMezazjXM2na5dObfWRy" name="Page-2">
    <mxGraphModel dx="1246" dy="694" grid="1" gridSize="10" guides="1" tooltips="1" connect="1" arrows="1" fold="1" page="1" pageScale="1" pageWidth="3300" pageHeight="4681" math="0" shadow="0">
      <root>
        <mxCell id="0" />
        <mxCell id="1" parent="0" />
        <mxCell id="rcNc0Pm6xCrmvfzC1n8d-1" value="Utilizador" style="shape=table;startSize=30;container=1;collapsible=1;childLayout=tableLayout;fixedRows=1;rowLines=0;fontStyle=1;align=center;resizeLast=1;html=1;fillColor=#fad7ac;strokeColor=#b46504;" parent="1" vertex="1">
          <mxGeometry x="400" y="440" width="160" height="180" as="geometry" />
        </mxCell>
        <mxCell id="rcNc0Pm6xCrmvfzC1n8d-2" value="" style="shape=tableRow;horizontal=0;startSize=0;swimlaneHead=0;swimlaneBody=0;fillColor=#fad7ac;collapsible=0;dropTarget=0;points=[[0,0.5],[1,0.5]];portConstraint=eastwest;top=0;left=0;right=0;bottom=1;strokeColor=#b46504;" parent="rcNc0Pm6xCrmvfzC1n8d-1" vertex="1">
          <mxGeometry y="30" width="160" height="30" as="geometry" />
        </mxCell>
        <mxCell id="rcNc0Pm6xCrmvfzC1n8d-3" value="PK" style="shape=partialRectangle;connectable=0;fillColor=#fad7ac;top=0;left=0;bottom=0;right=0;fontStyle=1;overflow=hidden;whiteSpace=wrap;html=1;strokeColor=#b46504;" parent="rcNc0Pm6xCrmvfzC1n8d-2" vertex="1">
          <mxGeometry width="30" height="30" as="geometry">
            <mxRectangle width="30" height="30" as="alternateBounds" />
          </mxGeometry>
        </mxCell>
        <mxCell id="rcNc0Pm6xCrmvfzC1n8d-4" value="id_utilizador" style="shape=partialRectangle;connectable=0;fillColor=#fad7ac;top=0;left=0;bottom=0;right=0;align=left;spacingLeft=6;fontStyle=5;overflow=hidden;whiteSpace=wrap;html=1;strokeColor=#b46504;" parent="rcNc0Pm6xCrmvfzC1n8d-2" vertex="1">
          <mxGeometry x="30" width="130" height="30" as="geometry">
            <mxRectangle width="130" height="30" as="alternateBounds" />
          </mxGeometry>
        </mxCell>
        <mxCell id="rcNc0Pm6xCrmvfzC1n8d-5" value="" style="shape=tableRow;horizontal=0;startSize=0;swimlaneHead=0;swimlaneBody=0;fillColor=#fad7ac;collapsible=0;dropTarget=0;points=[[0,0.5],[1,0.5]];portConstraint=eastwest;top=0;left=0;right=0;bottom=0;strokeColor=#b46504;" parent="rcNc0Pm6xCrmvfzC1n8d-1" vertex="1">
          <mxGeometry y="60" width="160" height="30" as="geometry" />
        </mxCell>
        <mxCell id="rcNc0Pm6xCrmvfzC1n8d-6" value="" style="shape=partialRectangle;connectable=0;fillColor=#fad7ac;top=0;left=0;bottom=0;right=0;editable=1;overflow=hidden;whiteSpace=wrap;html=1;strokeColor=#b46504;" parent="rcNc0Pm6xCrmvfzC1n8d-5" vertex="1">
          <mxGeometry width="30" height="30" as="geometry">
            <mxRectangle width="30" height="30" as="alternateBounds" />
          </mxGeometry>
        </mxCell>
        <mxCell id="rcNc0Pm6xCrmvfzC1n8d-7" value="nome" style="shape=partialRectangle;connectable=0;fillColor=#fad7ac;top=0;left=0;bottom=0;right=0;align=left;spacingLeft=6;overflow=hidden;whiteSpace=wrap;html=1;strokeColor=#b46504;" parent="rcNc0Pm6xCrmvfzC1n8d-5" vertex="1">
          <mxGeometry x="30" width="130" height="30" as="geometry">
            <mxRectangle width="130" height="30" as="alternateBounds" />
          </mxGeometry>
        </mxCell>
        <mxCell id="rcNc0Pm6xCrmvfzC1n8d-8" value="" style="shape=tableRow;horizontal=0;startSize=0;swimlaneHead=0;swimlaneBody=0;fillColor=#fad7ac;collapsible=0;dropTarget=0;points=[[0,0.5],[1,0.5]];portConstraint=eastwest;top=0;left=0;right=0;bottom=0;strokeColor=#b46504;" parent="rcNc0Pm6xCrmvfzC1n8d-1" vertex="1">
          <mxGeometry y="90" width="160" height="30" as="geometry" />
        </mxCell>
        <mxCell id="rcNc0Pm6xCrmvfzC1n8d-9" value="" style="shape=partialRectangle;connectable=0;fillColor=#fad7ac;top=0;left=0;bottom=0;right=0;editable=1;overflow=hidden;whiteSpace=wrap;html=1;strokeColor=#b46504;" parent="rcNc0Pm6xCrmvfzC1n8d-8" vertex="1">
          <mxGeometry width="30" height="30" as="geometry">
            <mxRectangle width="30" height="30" as="alternateBounds" />
          </mxGeometry>
        </mxCell>
        <mxCell id="rcNc0Pm6xCrmvfzC1n8d-10" value="idade" style="shape=partialRectangle;connectable=0;fillColor=#fad7ac;top=0;left=0;bottom=0;right=0;align=left;spacingLeft=6;overflow=hidden;whiteSpace=wrap;html=1;strokeColor=#b46504;" parent="rcNc0Pm6xCrmvfzC1n8d-8" vertex="1">
          <mxGeometry x="30" width="130" height="30" as="geometry">
            <mxRectangle width="130" height="30" as="alternateBounds" />
          </mxGeometry>
        </mxCell>
        <mxCell id="rcNc0Pm6xCrmvfzC1n8d-11" value="" style="shape=tableRow;horizontal=0;startSize=0;swimlaneHead=0;swimlaneBody=0;fillColor=#fad7ac;collapsible=0;dropTarget=0;points=[[0,0.5],[1,0.5]];portConstraint=eastwest;top=0;left=0;right=0;bottom=0;strokeColor=#b46504;" parent="rcNc0Pm6xCrmvfzC1n8d-1" vertex="1">
          <mxGeometry y="120" width="160" height="30" as="geometry" />
        </mxCell>
        <mxCell id="rcNc0Pm6xCrmvfzC1n8d-12" value="" style="shape=partialRectangle;connectable=0;fillColor=#fad7ac;top=0;left=0;bottom=0;right=0;editable=1;overflow=hidden;whiteSpace=wrap;html=1;strokeColor=#b46504;" parent="rcNc0Pm6xCrmvfzC1n8d-11" vertex="1">
          <mxGeometry width="30" height="30" as="geometry">
            <mxRectangle width="30" height="30" as="alternateBounds" />
          </mxGeometry>
        </mxCell>
        <mxCell id="rcNc0Pm6xCrmvfzC1n8d-13" value="email" style="shape=partialRectangle;connectable=0;fillColor=#fad7ac;top=0;left=0;bottom=0;right=0;align=left;spacingLeft=6;overflow=hidden;whiteSpace=wrap;html=1;strokeColor=#b46504;" parent="rcNc0Pm6xCrmvfzC1n8d-11" vertex="1">
          <mxGeometry x="30" width="130" height="30" as="geometry">
            <mxRectangle width="130" height="30" as="alternateBounds" />
          </mxGeometry>
        </mxCell>
        <mxCell id="wKCKOc4QGwqDKSHg7fvd-2" style="shape=tableRow;horizontal=0;startSize=0;swimlaneHead=0;swimlaneBody=0;fillColor=#fad7ac;collapsible=0;dropTarget=0;points=[[0,0.5],[1,0.5]];portConstraint=eastwest;top=0;left=0;right=0;bottom=0;strokeColor=#b46504;" parent="rcNc0Pm6xCrmvfzC1n8d-1" vertex="1">
          <mxGeometry y="150" width="160" height="30" as="geometry" />
        </mxCell>
        <mxCell id="wKCKOc4QGwqDKSHg7fvd-3" style="shape=partialRectangle;connectable=0;fillColor=#fad7ac;top=0;left=0;bottom=0;right=0;editable=1;overflow=hidden;whiteSpace=wrap;html=1;strokeColor=#b46504;" parent="wKCKOc4QGwqDKSHg7fvd-2" vertex="1">
          <mxGeometry width="30" height="30" as="geometry">
            <mxRectangle width="30" height="30" as="alternateBounds" />
          </mxGeometry>
        </mxCell>
        <mxCell id="wKCKOc4QGwqDKSHg7fvd-4" value="telefone" style="shape=partialRectangle;connectable=0;fillColor=#fad7ac;top=0;left=0;bottom=0;right=0;align=left;spacingLeft=6;overflow=hidden;whiteSpace=wrap;html=1;strokeColor=#b46504;" parent="wKCKOc4QGwqDKSHg7fvd-2" vertex="1">
          <mxGeometry x="30" width="130" height="30" as="geometry">
            <mxRectangle width="130" height="30" as="alternateBounds" />
          </mxGeometry>
        </mxCell>
        <mxCell id="tpay7S8F0BcuykQetkKW-33" value="Desafio_Criação" style="shape=table;startSize=30;container=1;collapsible=1;childLayout=tableLayout;fixedRows=1;rowLines=0;fontStyle=1;align=center;resizeLast=1;html=1;fillColor=#fad7ac;strokeColor=#b46504;" parent="1" vertex="1">
          <mxGeometry x="680" y="440" width="160" height="150" as="geometry" />
        </mxCell>
        <mxCell id="tpay7S8F0BcuykQetkKW-34" value="" style="shape=tableRow;horizontal=0;startSize=0;swimlaneHead=0;swimlaneBody=0;fillColor=#fad7ac;collapsible=0;dropTarget=0;points=[[0,0.5],[1,0.5]];portConstraint=eastwest;top=0;left=0;right=0;bottom=1;strokeColor=#b46504;" parent="tpay7S8F0BcuykQetkKW-33" vertex="1">
          <mxGeometry y="30" width="160" height="30" as="geometry" />
        </mxCell>
        <mxCell id="tpay7S8F0BcuykQetkKW-35" value="PK" style="shape=partialRectangle;connectable=0;fillColor=#fad7ac;top=0;left=0;bottom=0;right=0;fontStyle=1;overflow=hidden;whiteSpace=wrap;html=1;strokeColor=#b46504;" parent="tpay7S8F0BcuykQetkKW-34" vertex="1">
          <mxGeometry width="30" height="30" as="geometry">
            <mxRectangle width="30" height="30" as="alternateBounds" />
          </mxGeometry>
        </mxCell>
        <mxCell id="tpay7S8F0BcuykQetkKW-36" value="id_desafio" style="shape=partialRectangle;connectable=0;fillColor=#fad7ac;top=0;left=0;bottom=0;right=0;align=left;spacingLeft=6;fontStyle=5;overflow=hidden;whiteSpace=wrap;html=1;strokeColor=#b46504;" parent="tpay7S8F0BcuykQetkKW-34" vertex="1">
          <mxGeometry x="30" width="130" height="30" as="geometry">
            <mxRectangle width="130" height="30" as="alternateBounds" />
          </mxGeometry>
        </mxCell>
        <mxCell id="tpay7S8F0BcuykQetkKW-37" value="" style="shape=tableRow;horizontal=0;startSize=0;swimlaneHead=0;swimlaneBody=0;fillColor=#fad7ac;collapsible=0;dropTarget=0;points=[[0,0.5],[1,0.5]];portConstraint=eastwest;top=0;left=0;right=0;bottom=0;strokeColor=#b46504;" parent="tpay7S8F0BcuykQetkKW-33" vertex="1">
          <mxGeometry y="60" width="160" height="30" as="geometry" />
        </mxCell>
        <mxCell id="tpay7S8F0BcuykQetkKW-38" value="" style="shape=partialRectangle;connectable=0;fillColor=#fad7ac;top=0;left=0;bottom=0;right=0;editable=1;overflow=hidden;whiteSpace=wrap;html=1;strokeColor=#b46504;" parent="tpay7S8F0BcuykQetkKW-37" vertex="1">
          <mxGeometry width="30" height="30" as="geometry">
            <mxRectangle width="30" height="30" as="alternateBounds" />
          </mxGeometry>
        </mxCell>
        <mxCell id="tpay7S8F0BcuykQetkKW-39" value="descrição" style="shape=partialRectangle;connectable=0;fillColor=#fad7ac;top=0;left=0;bottom=0;right=0;align=left;spacingLeft=6;overflow=hidden;whiteSpace=wrap;html=1;strokeColor=#b46504;" parent="tpay7S8F0BcuykQetkKW-37" vertex="1">
          <mxGeometry x="30" width="130" height="30" as="geometry">
            <mxRectangle width="130" height="30" as="alternateBounds" />
          </mxGeometry>
        </mxCell>
        <mxCell id="XrIcPbVZqToCGc-y30Lu-1" style="shape=tableRow;horizontal=0;startSize=0;swimlaneHead=0;swimlaneBody=0;fillColor=#fad7ac;collapsible=0;dropTarget=0;points=[[0,0.5],[1,0.5]];portConstraint=eastwest;top=0;left=0;right=0;bottom=0;strokeColor=#b46504;" parent="tpay7S8F0BcuykQetkKW-33" vertex="1">
          <mxGeometry y="90" width="160" height="30" as="geometry" />
        </mxCell>
        <mxCell id="XrIcPbVZqToCGc-y30Lu-2" value="FK" style="shape=partialRectangle;connectable=0;fillColor=#fad7ac;top=0;left=0;bottom=0;right=0;editable=1;overflow=hidden;whiteSpace=wrap;html=1;strokeColor=#b46504;" parent="XrIcPbVZqToCGc-y30Lu-1" vertex="1">
          <mxGeometry width="30" height="30" as="geometry">
            <mxRectangle width="30" height="30" as="alternateBounds" />
          </mxGeometry>
        </mxCell>
        <mxCell id="XrIcPbVZqToCGc-y30Lu-3" value="id_utilizador" style="shape=partialRectangle;connectable=0;fillColor=#fad7ac;top=0;left=0;bottom=0;right=0;align=left;spacingLeft=6;overflow=hidden;whiteSpace=wrap;html=1;strokeColor=#b46504;" parent="XrIcPbVZqToCGc-y30Lu-1" vertex="1">
          <mxGeometry x="30" width="130" height="30" as="geometry">
            <mxRectangle width="130" height="30" as="alternateBounds" />
          </mxGeometry>
        </mxCell>
        <mxCell id="deGMsFcfbLvtlUI76dwy-1" style="shape=tableRow;horizontal=0;startSize=0;swimlaneHead=0;swimlaneBody=0;fillColor=#fad7ac;collapsible=0;dropTarget=0;points=[[0,0.5],[1,0.5]];portConstraint=eastwest;top=0;left=0;right=0;bottom=0;strokeColor=#b46504;" parent="tpay7S8F0BcuykQetkKW-33" vertex="1">
          <mxGeometry y="120" width="160" height="30" as="geometry" />
        </mxCell>
        <mxCell id="deGMsFcfbLvtlUI76dwy-2" value="FK" style="shape=partialRectangle;connectable=0;fillColor=#fad7ac;top=0;left=0;bottom=0;right=0;editable=1;overflow=hidden;whiteSpace=wrap;html=1;strokeColor=#b46504;" parent="deGMsFcfbLvtlUI76dwy-1" vertex="1">
          <mxGeometry width="30" height="30" as="geometry">
            <mxRectangle width="30" height="30" as="alternateBounds" />
          </mxGeometry>
        </mxCell>
        <mxCell id="deGMsFcfbLvtlUI76dwy-3" value="id_localidade" style="shape=partialRectangle;connectable=0;fillColor=#fad7ac;top=0;left=0;bottom=0;right=0;align=left;spacingLeft=6;overflow=hidden;whiteSpace=wrap;html=1;strokeColor=#b46504;" parent="deGMsFcfbLvtlUI76dwy-1" vertex="1">
          <mxGeometry x="30" width="130" height="30" as="geometry">
            <mxRectangle width="130" height="30" as="alternateBounds" />
          </mxGeometry>
        </mxCell>
        <mxCell id="PXM7x0idvHpRlAzLK7ut-1" value="" style="edgeStyle=entityRelationEdgeStyle;fontSize=12;html=1;endArrow=ERmany;endFill=0;rounded=0;startArrow=ERone;startFill=0;exitX=1;exitY=0.5;exitDx=0;exitDy=0;entryX=0;entryY=0.5;entryDx=0;entryDy=0;fillColor=#fad7ac;strokeColor=#a36519;" parent="1" source="rcNc0Pm6xCrmvfzC1n8d-2" target="XrIcPbVZqToCGc-y30Lu-1" edge="1">
          <mxGeometry width="100" height="100" relative="1" as="geometry">
            <mxPoint x="580" y="620" as="sourcePoint" />
            <mxPoint x="680" y="520" as="targetPoint" />
          </mxGeometry>
        </mxCell>
        <mxCell id="PL6lvKL0lmUx5k11w7h_-1" value="Desafio_Participação" style="shape=table;startSize=30;container=1;collapsible=1;childLayout=tableLayout;fixedRows=1;rowLines=0;fontStyle=1;align=center;resizeLast=1;html=1;whiteSpace=wrap;fillColor=#fad7ac;strokeColor=#b46504;" parent="1" vertex="1">
          <mxGeometry x="680" y="120" width="160" height="270" as="geometry" />
        </mxCell>
        <mxCell id="PL6lvKL0lmUx5k11w7h_-2" value="" style="shape=tableRow;horizontal=0;startSize=0;swimlaneHead=0;swimlaneBody=0;fillColor=#fad7ac;collapsible=0;dropTarget=0;points=[[0,0.5],[1,0.5]];portConstraint=eastwest;top=0;left=0;right=0;bottom=0;html=1;strokeColor=#b46504;" parent="PL6lvKL0lmUx5k11w7h_-1" vertex="1">
          <mxGeometry y="30" width="160" height="30" as="geometry" />
        </mxCell>
        <mxCell id="PL6lvKL0lmUx5k11w7h_-3" value="PK,FK1" style="shape=partialRectangle;connectable=0;fillColor=#fad7ac;top=0;left=0;bottom=0;right=0;fontStyle=1;overflow=hidden;html=1;whiteSpace=wrap;strokeColor=#b46504;" parent="PL6lvKL0lmUx5k11w7h_-2" vertex="1">
          <mxGeometry width="60" height="30" as="geometry">
            <mxRectangle width="60" height="30" as="alternateBounds" />
          </mxGeometry>
        </mxCell>
        <mxCell id="PL6lvKL0lmUx5k11w7h_-4" value="id_utilizador" style="shape=partialRectangle;connectable=0;fillColor=#fad7ac;top=0;left=0;bottom=0;right=0;align=left;spacingLeft=6;fontStyle=5;overflow=hidden;html=1;whiteSpace=wrap;strokeColor=#b46504;" parent="PL6lvKL0lmUx5k11w7h_-2" vertex="1">
          <mxGeometry x="60" width="100" height="30" as="geometry">
            <mxRectangle width="100" height="30" as="alternateBounds" />
          </mxGeometry>
        </mxCell>
        <mxCell id="PL6lvKL0lmUx5k11w7h_-5" value="" style="shape=tableRow;horizontal=0;startSize=0;swimlaneHead=0;swimlaneBody=0;fillColor=#fad7ac;collapsible=0;dropTarget=0;points=[[0,0.5],[1,0.5]];portConstraint=eastwest;top=0;left=0;right=0;bottom=1;html=1;strokeColor=#b46504;" parent="PL6lvKL0lmUx5k11w7h_-1" vertex="1">
          <mxGeometry y="60" width="160" height="30" as="geometry" />
        </mxCell>
        <mxCell id="PL6lvKL0lmUx5k11w7h_-6" value="PK,FK2" style="shape=partialRectangle;connectable=0;fillColor=#fad7ac;top=0;left=0;bottom=0;right=0;fontStyle=1;overflow=hidden;html=1;whiteSpace=wrap;strokeColor=#b46504;" parent="PL6lvKL0lmUx5k11w7h_-5" vertex="1">
          <mxGeometry width="60" height="30" as="geometry">
            <mxRectangle width="60" height="30" as="alternateBounds" />
          </mxGeometry>
        </mxCell>
        <mxCell id="PL6lvKL0lmUx5k11w7h_-7" value="id_desafio" style="shape=partialRectangle;connectable=0;fillColor=#fad7ac;top=0;left=0;bottom=0;right=0;align=left;spacingLeft=6;fontStyle=5;overflow=hidden;html=1;whiteSpace=wrap;strokeColor=#b46504;" parent="PL6lvKL0lmUx5k11w7h_-5" vertex="1">
          <mxGeometry x="60" width="100" height="30" as="geometry">
            <mxRectangle width="100" height="30" as="alternateBounds" />
          </mxGeometry>
        </mxCell>
        <mxCell id="PL6lvKL0lmUx5k11w7h_-8" value="" style="shape=tableRow;horizontal=0;startSize=0;swimlaneHead=0;swimlaneBody=0;fillColor=#fad7ac;collapsible=0;dropTarget=0;points=[[0,0.5],[1,0.5]];portConstraint=eastwest;top=0;left=0;right=0;bottom=0;html=1;strokeColor=#b46504;" parent="PL6lvKL0lmUx5k11w7h_-1" vertex="1">
          <mxGeometry y="90" width="160" height="30" as="geometry" />
        </mxCell>
        <mxCell id="PL6lvKL0lmUx5k11w7h_-9" value="" style="shape=partialRectangle;connectable=0;fillColor=#fad7ac;top=0;left=0;bottom=0;right=0;editable=1;overflow=hidden;html=1;whiteSpace=wrap;strokeColor=#b46504;" parent="PL6lvKL0lmUx5k11w7h_-8" vertex="1">
          <mxGeometry width="60" height="30" as="geometry">
            <mxRectangle width="60" height="30" as="alternateBounds" />
          </mxGeometry>
        </mxCell>
        <mxCell id="PL6lvKL0lmUx5k11w7h_-10" value="sucesso" style="shape=partialRectangle;connectable=0;fillColor=#fad7ac;top=0;left=0;bottom=0;right=0;align=left;spacingLeft=6;overflow=hidden;html=1;whiteSpace=wrap;strokeColor=#b46504;" parent="PL6lvKL0lmUx5k11w7h_-8" vertex="1">
          <mxGeometry x="60" width="100" height="30" as="geometry">
            <mxRectangle width="100" height="30" as="alternateBounds" />
          </mxGeometry>
        </mxCell>
        <mxCell id="PL6lvKL0lmUx5k11w7h_-11" value="" style="shape=tableRow;horizontal=0;startSize=0;swimlaneHead=0;swimlaneBody=0;fillColor=#fad7ac;collapsible=0;dropTarget=0;points=[[0,0.5],[1,0.5]];portConstraint=eastwest;top=0;left=0;right=0;bottom=0;html=1;strokeColor=#b46504;" parent="PL6lvKL0lmUx5k11w7h_-1" vertex="1">
          <mxGeometry y="120" width="160" height="30" as="geometry" />
        </mxCell>
        <mxCell id="PL6lvKL0lmUx5k11w7h_-12" value="" style="shape=partialRectangle;connectable=0;fillColor=#fad7ac;top=0;left=0;bottom=0;right=0;editable=1;overflow=hidden;html=1;whiteSpace=wrap;strokeColor=#b46504;" parent="PL6lvKL0lmUx5k11w7h_-11" vertex="1">
          <mxGeometry width="60" height="30" as="geometry">
            <mxRectangle width="60" height="30" as="alternateBounds" />
          </mxGeometry>
        </mxCell>
        <mxCell id="PL6lvKL0lmUx5k11w7h_-13" value="validarSucesso" style="shape=partialRectangle;connectable=0;fillColor=#fad7ac;top=0;left=0;bottom=0;right=0;align=left;spacingLeft=6;overflow=hidden;html=1;whiteSpace=wrap;strokeColor=#b46504;" parent="PL6lvKL0lmUx5k11w7h_-11" vertex="1">
          <mxGeometry x="60" width="100" height="30" as="geometry">
            <mxRectangle width="100" height="30" as="alternateBounds" />
          </mxGeometry>
        </mxCell>
        <mxCell id="qy-oSnXfSdq7mS3I2ZeO-10" style="shape=tableRow;horizontal=0;startSize=0;swimlaneHead=0;swimlaneBody=0;fillColor=#fad7ac;collapsible=0;dropTarget=0;points=[[0,0.5],[1,0.5]];portConstraint=eastwest;top=0;left=0;right=0;bottom=0;html=1;strokeColor=#b46504;" parent="PL6lvKL0lmUx5k11w7h_-1" vertex="1">
          <mxGeometry y="150" width="160" height="30" as="geometry" />
        </mxCell>
        <mxCell id="qy-oSnXfSdq7mS3I2ZeO-11" style="shape=partialRectangle;connectable=0;fillColor=#fad7ac;top=0;left=0;bottom=0;right=0;editable=1;overflow=hidden;html=1;whiteSpace=wrap;strokeColor=#b46504;" parent="qy-oSnXfSdq7mS3I2ZeO-10" vertex="1">
          <mxGeometry width="60" height="30" as="geometry">
            <mxRectangle width="60" height="30" as="alternateBounds" />
          </mxGeometry>
        </mxCell>
        <mxCell id="qy-oSnXfSdq7mS3I2ZeO-12" value="dataInício" style="shape=partialRectangle;connectable=0;fillColor=#fad7ac;top=0;left=0;bottom=0;right=0;align=left;spacingLeft=6;overflow=hidden;html=1;whiteSpace=wrap;strokeColor=#b46504;" parent="qy-oSnXfSdq7mS3I2ZeO-10" vertex="1">
          <mxGeometry x="60" width="100" height="30" as="geometry">
            <mxRectangle width="100" height="30" as="alternateBounds" />
          </mxGeometry>
        </mxCell>
        <mxCell id="qy-oSnXfSdq7mS3I2ZeO-7" style="shape=tableRow;horizontal=0;startSize=0;swimlaneHead=0;swimlaneBody=0;fillColor=#fad7ac;collapsible=0;dropTarget=0;points=[[0,0.5],[1,0.5]];portConstraint=eastwest;top=0;left=0;right=0;bottom=0;html=1;strokeColor=#b46504;" parent="PL6lvKL0lmUx5k11w7h_-1" vertex="1">
          <mxGeometry y="180" width="160" height="30" as="geometry" />
        </mxCell>
        <mxCell id="qy-oSnXfSdq7mS3I2ZeO-8" style="shape=partialRectangle;connectable=0;fillColor=#fad7ac;top=0;left=0;bottom=0;right=0;editable=1;overflow=hidden;html=1;whiteSpace=wrap;strokeColor=#b46504;" parent="qy-oSnXfSdq7mS3I2ZeO-7" vertex="1">
          <mxGeometry width="60" height="30" as="geometry">
            <mxRectangle width="60" height="30" as="alternateBounds" />
          </mxGeometry>
        </mxCell>
        <mxCell id="qy-oSnXfSdq7mS3I2ZeO-9" value="horaInício" style="shape=partialRectangle;connectable=0;fillColor=#fad7ac;top=0;left=0;bottom=0;right=0;align=left;spacingLeft=6;overflow=hidden;html=1;whiteSpace=wrap;strokeColor=#b46504;" parent="qy-oSnXfSdq7mS3I2ZeO-7" vertex="1">
          <mxGeometry x="60" width="100" height="30" as="geometry">
            <mxRectangle width="100" height="30" as="alternateBounds" />
          </mxGeometry>
        </mxCell>
        <mxCell id="qy-oSnXfSdq7mS3I2ZeO-4" style="shape=tableRow;horizontal=0;startSize=0;swimlaneHead=0;swimlaneBody=0;fillColor=#fad7ac;collapsible=0;dropTarget=0;points=[[0,0.5],[1,0.5]];portConstraint=eastwest;top=0;left=0;right=0;bottom=0;html=1;strokeColor=#b46504;" parent="PL6lvKL0lmUx5k11w7h_-1" vertex="1">
          <mxGeometry y="210" width="160" height="30" as="geometry" />
        </mxCell>
        <mxCell id="qy-oSnXfSdq7mS3I2ZeO-5" style="shape=partialRectangle;connectable=0;fillColor=#fad7ac;top=0;left=0;bottom=0;right=0;editable=1;overflow=hidden;html=1;whiteSpace=wrap;strokeColor=#b46504;" parent="qy-oSnXfSdq7mS3I2ZeO-4" vertex="1">
          <mxGeometry width="60" height="30" as="geometry">
            <mxRectangle width="60" height="30" as="alternateBounds" />
          </mxGeometry>
        </mxCell>
        <mxCell id="qy-oSnXfSdq7mS3I2ZeO-6" value="dataFim" style="shape=partialRectangle;connectable=0;fillColor=#fad7ac;top=0;left=0;bottom=0;right=0;align=left;spacingLeft=6;overflow=hidden;html=1;whiteSpace=wrap;strokeColor=#b46504;" parent="qy-oSnXfSdq7mS3I2ZeO-4" vertex="1">
          <mxGeometry x="60" width="100" height="30" as="geometry">
            <mxRectangle width="100" height="30" as="alternateBounds" />
          </mxGeometry>
        </mxCell>
        <mxCell id="qy-oSnXfSdq7mS3I2ZeO-1" style="shape=tableRow;horizontal=0;startSize=0;swimlaneHead=0;swimlaneBody=0;fillColor=#fad7ac;collapsible=0;dropTarget=0;points=[[0,0.5],[1,0.5]];portConstraint=eastwest;top=0;left=0;right=0;bottom=0;html=1;strokeColor=#b46504;" parent="PL6lvKL0lmUx5k11w7h_-1" vertex="1">
          <mxGeometry y="240" width="160" height="30" as="geometry" />
        </mxCell>
        <mxCell id="qy-oSnXfSdq7mS3I2ZeO-2" style="shape=partialRectangle;connectable=0;fillColor=#fad7ac;top=0;left=0;bottom=0;right=0;editable=1;overflow=hidden;html=1;whiteSpace=wrap;strokeColor=#b46504;" parent="qy-oSnXfSdq7mS3I2ZeO-1" vertex="1">
          <mxGeometry width="60" height="30" as="geometry">
            <mxRectangle width="60" height="30" as="alternateBounds" />
          </mxGeometry>
        </mxCell>
        <mxCell id="qy-oSnXfSdq7mS3I2ZeO-3" value="horaFim" style="shape=partialRectangle;connectable=0;fillColor=#fad7ac;top=0;left=0;bottom=0;right=0;align=left;spacingLeft=6;overflow=hidden;html=1;whiteSpace=wrap;strokeColor=#b46504;" parent="qy-oSnXfSdq7mS3I2ZeO-1" vertex="1">
          <mxGeometry x="60" width="100" height="30" as="geometry">
            <mxRectangle width="100" height="30" as="alternateBounds" />
          </mxGeometry>
        </mxCell>
        <mxCell id="2L64kec_FQQ9UR-dpsB3-1" value="" style="edgeStyle=entityRelationEdgeStyle;fontSize=12;html=1;endArrow=ERmany;endFill=0;rounded=0;startArrow=ERone;startFill=0;entryX=0;entryY=0.5;entryDx=0;entryDy=0;exitX=1;exitY=0.5;exitDx=0;exitDy=0;fillColor=#fad7ac;strokeColor=#a36519;" parent="1" source="rcNc0Pm6xCrmvfzC1n8d-2" target="PL6lvKL0lmUx5k11w7h_-2" edge="1">
          <mxGeometry width="100" height="100" relative="1" as="geometry">
            <mxPoint x="330" y="630" as="sourcePoint" />
            <mxPoint x="700" y="520" as="targetPoint" />
          </mxGeometry>
        </mxCell>
        <mxCell id="2L64kec_FQQ9UR-dpsB3-2" value="" style="edgeStyle=entityRelationEdgeStyle;fontSize=12;html=1;endArrow=ERmany;endFill=0;rounded=0;startArrow=ERone;startFill=0;exitX=1;exitY=0.5;exitDx=0;exitDy=0;entryX=1;entryY=0.5;entryDx=0;entryDy=0;fillColor=#fad7ac;strokeColor=#a36519;" parent="1" source="tpay7S8F0BcuykQetkKW-34" target="PL6lvKL0lmUx5k11w7h_-5" edge="1">
          <mxGeometry width="100" height="100" relative="1" as="geometry">
            <mxPoint x="1000" y="440" as="sourcePoint" />
            <mxPoint x="1000" y="700" as="targetPoint" />
          </mxGeometry>
        </mxCell>
        <mxCell id="jn0evtSsqD3Y-XqsREou-1" value="Localidade" style="shape=table;startSize=30;container=1;collapsible=1;childLayout=tableLayout;fixedRows=1;rowLines=0;fontStyle=1;align=center;resizeLast=1;html=1;fillColor=#fad7ac;strokeColor=#b46504;" parent="1" vertex="1">
          <mxGeometry x="960" y="440" width="160" height="150" as="geometry" />
        </mxCell>
        <mxCell id="jn0evtSsqD3Y-XqsREou-2" value="" style="shape=tableRow;horizontal=0;startSize=0;swimlaneHead=0;swimlaneBody=0;fillColor=#fad7ac;collapsible=0;dropTarget=0;points=[[0,0.5],[1,0.5]];portConstraint=eastwest;top=0;left=0;right=0;bottom=1;strokeColor=#b46504;" parent="jn0evtSsqD3Y-XqsREou-1" vertex="1">
          <mxGeometry y="30" width="160" height="30" as="geometry" />
        </mxCell>
        <mxCell id="jn0evtSsqD3Y-XqsREou-3" value="PK" style="shape=partialRectangle;connectable=0;fillColor=#fad7ac;top=0;left=0;bottom=0;right=0;fontStyle=1;overflow=hidden;whiteSpace=wrap;html=1;strokeColor=#b46504;" parent="jn0evtSsqD3Y-XqsREou-2" vertex="1">
          <mxGeometry width="30" height="30" as="geometry">
            <mxRectangle width="30" height="30" as="alternateBounds" />
          </mxGeometry>
        </mxCell>
        <mxCell id="jn0evtSsqD3Y-XqsREou-4" value="id_localidade" style="shape=partialRectangle;connectable=0;fillColor=#fad7ac;top=0;left=0;bottom=0;right=0;align=left;spacingLeft=6;fontStyle=5;overflow=hidden;whiteSpace=wrap;html=1;strokeColor=#b46504;" parent="jn0evtSsqD3Y-XqsREou-2" vertex="1">
          <mxGeometry x="30" width="130" height="30" as="geometry">
            <mxRectangle width="130" height="30" as="alternateBounds" />
          </mxGeometry>
        </mxCell>
        <mxCell id="jn0evtSsqD3Y-XqsREou-5" value="" style="shape=tableRow;horizontal=0;startSize=0;swimlaneHead=0;swimlaneBody=0;fillColor=#fad7ac;collapsible=0;dropTarget=0;points=[[0,0.5],[1,0.5]];portConstraint=eastwest;top=0;left=0;right=0;bottom=0;strokeColor=#b46504;" parent="jn0evtSsqD3Y-XqsREou-1" vertex="1">
          <mxGeometry y="60" width="160" height="30" as="geometry" />
        </mxCell>
        <mxCell id="jn0evtSsqD3Y-XqsREou-6" value="" style="shape=partialRectangle;connectable=0;fillColor=#fad7ac;top=0;left=0;bottom=0;right=0;editable=1;overflow=hidden;whiteSpace=wrap;html=1;strokeColor=#b46504;" parent="jn0evtSsqD3Y-XqsREou-5" vertex="1">
          <mxGeometry width="30" height="30" as="geometry">
            <mxRectangle width="30" height="30" as="alternateBounds" />
          </mxGeometry>
        </mxCell>
        <mxCell id="jn0evtSsqD3Y-XqsREou-7" value="nome" style="shape=partialRectangle;connectable=0;fillColor=#fad7ac;top=0;left=0;bottom=0;right=0;align=left;spacingLeft=6;overflow=hidden;whiteSpace=wrap;html=1;strokeColor=#b46504;" parent="jn0evtSsqD3Y-XqsREou-5" vertex="1">
          <mxGeometry x="30" width="130" height="30" as="geometry">
            <mxRectangle width="130" height="30" as="alternateBounds" />
          </mxGeometry>
        </mxCell>
        <mxCell id="jn0evtSsqD3Y-XqsREou-8" value="" style="shape=tableRow;horizontal=0;startSize=0;swimlaneHead=0;swimlaneBody=0;fillColor=#fad7ac;collapsible=0;dropTarget=0;points=[[0,0.5],[1,0.5]];portConstraint=eastwest;top=0;left=0;right=0;bottom=0;strokeColor=#b46504;" parent="jn0evtSsqD3Y-XqsREou-1" vertex="1">
          <mxGeometry y="90" width="160" height="30" as="geometry" />
        </mxCell>
        <mxCell id="jn0evtSsqD3Y-XqsREou-9" value="" style="shape=partialRectangle;connectable=0;fillColor=#fad7ac;top=0;left=0;bottom=0;right=0;editable=1;overflow=hidden;whiteSpace=wrap;html=1;strokeColor=#b46504;" parent="jn0evtSsqD3Y-XqsREou-8" vertex="1">
          <mxGeometry width="30" height="30" as="geometry">
            <mxRectangle width="30" height="30" as="alternateBounds" />
          </mxGeometry>
        </mxCell>
        <mxCell id="jn0evtSsqD3Y-XqsREou-10" value="localizaçãoGPS" style="shape=partialRectangle;connectable=0;fillColor=#fad7ac;top=0;left=0;bottom=0;right=0;align=left;spacingLeft=6;overflow=hidden;whiteSpace=wrap;html=1;strokeColor=#b46504;" parent="jn0evtSsqD3Y-XqsREou-8" vertex="1">
          <mxGeometry x="30" width="130" height="30" as="geometry">
            <mxRectangle width="130" height="30" as="alternateBounds" />
          </mxGeometry>
        </mxCell>
        <mxCell id="OQuHg9-_UHDv4TaLwEg1-1" style="shape=tableRow;horizontal=0;startSize=0;swimlaneHead=0;swimlaneBody=0;fillColor=#fad7ac;collapsible=0;dropTarget=0;points=[[0,0.5],[1,0.5]];portConstraint=eastwest;top=0;left=0;right=0;bottom=0;strokeColor=#b46504;" parent="jn0evtSsqD3Y-XqsREou-1" vertex="1">
          <mxGeometry y="120" width="160" height="30" as="geometry" />
        </mxCell>
        <mxCell id="OQuHg9-_UHDv4TaLwEg1-2" value="FK" style="shape=partialRectangle;connectable=0;fillColor=#fad7ac;top=0;left=0;bottom=0;right=0;editable=1;overflow=hidden;whiteSpace=wrap;html=1;strokeColor=#b46504;" parent="OQuHg9-_UHDv4TaLwEg1-1" vertex="1">
          <mxGeometry width="30" height="30" as="geometry">
            <mxRectangle width="30" height="30" as="alternateBounds" />
          </mxGeometry>
        </mxCell>
        <mxCell id="OQuHg9-_UHDv4TaLwEg1-3" value="id_região" style="shape=partialRectangle;connectable=0;fillColor=#fad7ac;top=0;left=0;bottom=0;right=0;align=left;spacingLeft=6;overflow=hidden;whiteSpace=wrap;html=1;strokeColor=#b46504;" parent="OQuHg9-_UHDv4TaLwEg1-1" vertex="1">
          <mxGeometry x="30" width="130" height="30" as="geometry">
            <mxRectangle width="130" height="30" as="alternateBounds" />
          </mxGeometry>
        </mxCell>
        <mxCell id="E196m1LK6arPHUWAH50a-1" value="" style="edgeStyle=entityRelationEdgeStyle;fontSize=12;html=1;endArrow=ERmany;endFill=0;rounded=0;startArrow=ERone;startFill=0;exitX=0;exitY=0.5;exitDx=0;exitDy=0;entryX=1;entryY=0.5;entryDx=0;entryDy=0;fillColor=#fad7ac;strokeColor=#a36519;" parent="1" source="jn0evtSsqD3Y-XqsREou-2" target="deGMsFcfbLvtlUI76dwy-1" edge="1">
          <mxGeometry width="100" height="100" relative="1" as="geometry">
            <mxPoint x="920" y="610" as="sourcePoint" />
            <mxPoint x="920" y="800" as="targetPoint" />
          </mxGeometry>
        </mxCell>
        <mxCell id="S6QYgl0OU6v2ZThTf8QR-1" value="Região" style="shape=table;startSize=30;container=1;collapsible=1;childLayout=tableLayout;fixedRows=1;rowLines=0;fontStyle=1;align=center;resizeLast=1;html=1;fillColor=#fad7ac;strokeColor=#b46504;" parent="1" vertex="1">
          <mxGeometry x="1200" y="440" width="160" height="120" as="geometry" />
        </mxCell>
        <mxCell id="S6QYgl0OU6v2ZThTf8QR-2" value="" style="shape=tableRow;horizontal=0;startSize=0;swimlaneHead=0;swimlaneBody=0;fillColor=#fad7ac;collapsible=0;dropTarget=0;points=[[0,0.5],[1,0.5]];portConstraint=eastwest;top=0;left=0;right=0;bottom=1;strokeColor=#b46504;" parent="S6QYgl0OU6v2ZThTf8QR-1" vertex="1">
          <mxGeometry y="30" width="160" height="30" as="geometry" />
        </mxCell>
        <mxCell id="S6QYgl0OU6v2ZThTf8QR-3" value="PK" style="shape=partialRectangle;connectable=0;fillColor=#fad7ac;top=0;left=0;bottom=0;right=0;fontStyle=1;overflow=hidden;whiteSpace=wrap;html=1;strokeColor=#b46504;" parent="S6QYgl0OU6v2ZThTf8QR-2" vertex="1">
          <mxGeometry width="30" height="30" as="geometry">
            <mxRectangle width="30" height="30" as="alternateBounds" />
          </mxGeometry>
        </mxCell>
        <mxCell id="S6QYgl0OU6v2ZThTf8QR-4" value="id_região" style="shape=partialRectangle;connectable=0;fillColor=#fad7ac;top=0;left=0;bottom=0;right=0;align=left;spacingLeft=6;fontStyle=5;overflow=hidden;whiteSpace=wrap;html=1;strokeColor=#b46504;" parent="S6QYgl0OU6v2ZThTf8QR-2" vertex="1">
          <mxGeometry x="30" width="130" height="30" as="geometry">
            <mxRectangle width="130" height="30" as="alternateBounds" />
          </mxGeometry>
        </mxCell>
        <mxCell id="S6QYgl0OU6v2ZThTf8QR-5" value="" style="shape=tableRow;horizontal=0;startSize=0;swimlaneHead=0;swimlaneBody=0;fillColor=#fad7ac;collapsible=0;dropTarget=0;points=[[0,0.5],[1,0.5]];portConstraint=eastwest;top=0;left=0;right=0;bottom=0;strokeColor=#b46504;" parent="S6QYgl0OU6v2ZThTf8QR-1" vertex="1">
          <mxGeometry y="60" width="160" height="30" as="geometry" />
        </mxCell>
        <mxCell id="S6QYgl0OU6v2ZThTf8QR-6" value="" style="shape=partialRectangle;connectable=0;fillColor=#fad7ac;top=0;left=0;bottom=0;right=0;editable=1;overflow=hidden;whiteSpace=wrap;html=1;strokeColor=#b46504;" parent="S6QYgl0OU6v2ZThTf8QR-5" vertex="1">
          <mxGeometry width="30" height="30" as="geometry">
            <mxRectangle width="30" height="30" as="alternateBounds" />
          </mxGeometry>
        </mxCell>
        <mxCell id="S6QYgl0OU6v2ZThTf8QR-7" value="nome" style="shape=partialRectangle;connectable=0;fillColor=#fad7ac;top=0;left=0;bottom=0;right=0;align=left;spacingLeft=6;overflow=hidden;whiteSpace=wrap;html=1;strokeColor=#b46504;" parent="S6QYgl0OU6v2ZThTf8QR-5" vertex="1">
          <mxGeometry x="30" width="130" height="30" as="geometry">
            <mxRectangle width="130" height="30" as="alternateBounds" />
          </mxGeometry>
        </mxCell>
        <mxCell id="S6QYgl0OU6v2ZThTf8QR-8" style="shape=tableRow;horizontal=0;startSize=0;swimlaneHead=0;swimlaneBody=0;fillColor=#fad7ac;collapsible=0;dropTarget=0;points=[[0,0.5],[1,0.5]];portConstraint=eastwest;top=0;left=0;right=0;bottom=0;strokeColor=#b46504;" parent="S6QYgl0OU6v2ZThTf8QR-1" vertex="1">
          <mxGeometry y="90" width="160" height="30" as="geometry" />
        </mxCell>
        <mxCell id="S6QYgl0OU6v2ZThTf8QR-9" value="FK" style="shape=partialRectangle;connectable=0;fillColor=#fad7ac;top=0;left=0;bottom=0;right=0;editable=1;overflow=hidden;whiteSpace=wrap;html=1;strokeColor=#b46504;" parent="S6QYgl0OU6v2ZThTf8QR-8" vertex="1">
          <mxGeometry width="30" height="30" as="geometry">
            <mxRectangle width="30" height="30" as="alternateBounds" />
          </mxGeometry>
        </mxCell>
        <mxCell id="S6QYgl0OU6v2ZThTf8QR-10" value="id_país" style="shape=partialRectangle;connectable=0;fillColor=#fad7ac;top=0;left=0;bottom=0;right=0;align=left;spacingLeft=6;overflow=hidden;whiteSpace=wrap;html=1;strokeColor=#b46504;" parent="S6QYgl0OU6v2ZThTf8QR-8" vertex="1">
          <mxGeometry x="30" width="130" height="30" as="geometry">
            <mxRectangle width="130" height="30" as="alternateBounds" />
          </mxGeometry>
        </mxCell>
        <mxCell id="S6QYgl0OU6v2ZThTf8QR-14" value="País" style="shape=table;startSize=30;container=1;collapsible=1;childLayout=tableLayout;fixedRows=1;rowLines=0;fontStyle=1;align=center;resizeLast=1;html=1;fillColor=#fad7ac;strokeColor=#b46504;" parent="1" vertex="1">
          <mxGeometry x="1440" y="440" width="160" height="90" as="geometry" />
        </mxCell>
        <mxCell id="S6QYgl0OU6v2ZThTf8QR-15" value="" style="shape=tableRow;horizontal=0;startSize=0;swimlaneHead=0;swimlaneBody=0;fillColor=#fad7ac;collapsible=0;dropTarget=0;points=[[0,0.5],[1,0.5]];portConstraint=eastwest;top=0;left=0;right=0;bottom=1;strokeColor=#b46504;" parent="S6QYgl0OU6v2ZThTf8QR-14" vertex="1">
          <mxGeometry y="30" width="160" height="30" as="geometry" />
        </mxCell>
        <mxCell id="S6QYgl0OU6v2ZThTf8QR-16" value="PK" style="shape=partialRectangle;connectable=0;fillColor=#fad7ac;top=0;left=0;bottom=0;right=0;fontStyle=1;overflow=hidden;whiteSpace=wrap;html=1;strokeColor=#b46504;" parent="S6QYgl0OU6v2ZThTf8QR-15" vertex="1">
          <mxGeometry width="30" height="30" as="geometry">
            <mxRectangle width="30" height="30" as="alternateBounds" />
          </mxGeometry>
        </mxCell>
        <mxCell id="S6QYgl0OU6v2ZThTf8QR-17" value="id_país" style="shape=partialRectangle;connectable=0;fillColor=#fad7ac;top=0;left=0;bottom=0;right=0;align=left;spacingLeft=6;fontStyle=5;overflow=hidden;whiteSpace=wrap;html=1;strokeColor=#b46504;" parent="S6QYgl0OU6v2ZThTf8QR-15" vertex="1">
          <mxGeometry x="30" width="130" height="30" as="geometry">
            <mxRectangle width="130" height="30" as="alternateBounds" />
          </mxGeometry>
        </mxCell>
        <mxCell id="S6QYgl0OU6v2ZThTf8QR-18" value="" style="shape=tableRow;horizontal=0;startSize=0;swimlaneHead=0;swimlaneBody=0;fillColor=#fad7ac;collapsible=0;dropTarget=0;points=[[0,0.5],[1,0.5]];portConstraint=eastwest;top=0;left=0;right=0;bottom=0;strokeColor=#b46504;" parent="S6QYgl0OU6v2ZThTf8QR-14" vertex="1">
          <mxGeometry y="60" width="160" height="30" as="geometry" />
        </mxCell>
        <mxCell id="S6QYgl0OU6v2ZThTf8QR-19" value="" style="shape=partialRectangle;connectable=0;fillColor=#fad7ac;top=0;left=0;bottom=0;right=0;editable=1;overflow=hidden;whiteSpace=wrap;html=1;strokeColor=#b46504;" parent="S6QYgl0OU6v2ZThTf8QR-18" vertex="1">
          <mxGeometry width="30" height="30" as="geometry">
            <mxRectangle width="30" height="30" as="alternateBounds" />
          </mxGeometry>
        </mxCell>
        <mxCell id="S6QYgl0OU6v2ZThTf8QR-20" value="nome" style="shape=partialRectangle;connectable=0;fillColor=#fad7ac;top=0;left=0;bottom=0;right=0;align=left;spacingLeft=6;overflow=hidden;whiteSpace=wrap;html=1;strokeColor=#b46504;" parent="S6QYgl0OU6v2ZThTf8QR-18" vertex="1">
          <mxGeometry x="30" width="130" height="30" as="geometry">
            <mxRectangle width="130" height="30" as="alternateBounds" />
          </mxGeometry>
        </mxCell>
        <mxCell id="OQuHg9-_UHDv4TaLwEg1-4" value="" style="edgeStyle=entityRelationEdgeStyle;fontSize=12;html=1;endArrow=ERmany;endFill=0;rounded=0;startArrow=ERone;startFill=0;exitX=0;exitY=0.5;exitDx=0;exitDy=0;entryX=1;entryY=0.5;entryDx=0;entryDy=0;fillColor=#fad7ac;strokeColor=#a36519;" parent="1" source="S6QYgl0OU6v2ZThTf8QR-2" target="OQuHg9-_UHDv4TaLwEg1-1" edge="1">
          <mxGeometry width="100" height="100" relative="1" as="geometry">
            <mxPoint x="1200" y="590" as="sourcePoint" />
            <mxPoint x="1090" y="680" as="targetPoint" />
          </mxGeometry>
        </mxCell>
        <mxCell id="OQuHg9-_UHDv4TaLwEg1-5" value="" style="edgeStyle=entityRelationEdgeStyle;fontSize=12;html=1;endArrow=ERmany;endFill=0;rounded=0;startArrow=ERone;startFill=0;exitX=0;exitY=0.5;exitDx=0;exitDy=0;entryX=1;entryY=0.5;entryDx=0;entryDy=0;fillColor=#fad7ac;strokeColor=#b46504;" parent="1" source="S6QYgl0OU6v2ZThTf8QR-15" target="S6QYgl0OU6v2ZThTf8QR-8" edge="1">
          <mxGeometry width="100" height="100" relative="1" as="geometry">
            <mxPoint x="1370" y="640" as="sourcePoint" />
            <mxPoint x="1280" y="730" as="targetPoint" />
          </mxGeometry>
        </mxCell>
      </root>
    </mxGraphModel>
  </diagram>
</mxfile>
